<svg width="20.000000" height="11.000000" viewBox="0 0 20 11" fill="none" xmlns="http://www.w3.org/2000/svg" xmlns:xlink="http://www.w3.org/1999/xlink">
	<desc>
			Created with Pixso.
	</desc>
	<defs/>
	<path id="Vector" d="M10 -0.97C6.17 -0.97 2.71 1.12 0.15 4.52C-0.06 4.8 -0.06 5.19 0.15 5.47C2.71 8.87 6.17 10.96 10 10.96C13.82 10.96 17.28 8.87 19.84 5.47C20.05 5.19 20.05 4.8 19.84 4.52C17.28 1.12 13.82 -0.97 10 -0.97ZM10.27 9.19C7.73 9.35 5.64 7.26 5.8 4.72C5.93 2.63 7.63 0.93 9.72 0.8C12.26 0.64 14.35 2.73 14.19 5.27C14.06 7.36 12.36 9.06 10.27 9.19ZM10.14 7.25C8.78 7.34 7.65 6.21 7.74 4.85C7.81 3.72 8.72 2.81 9.85 2.73C11.22 2.65 12.35 3.77 12.26 5.14C12.18 6.27 11.27 7.18 10.14 7.25Z" fill="#B3C0D2" fill-opacity="1.000000" fill-rule="nonzero"/>
</svg>
