<svg width="14.000000" height="15.000000" viewBox="0 0 14 15" fill="none" xmlns="http://www.w3.org/2000/svg" xmlns:xlink="http://www.w3.org/1999/xlink">
	<desc>
			Created with Pixso.
	</desc>
	<defs/>
	<path id="Vector" d="M13.59 11L11.49 8.91C10.75 8.16 9.47 8.46 9.18 9.43C8.95 10.11 8.2 10.48 7.53 10.33C6.04 9.96 4.02 8.01 3.64 6.44C3.42 5.77 3.87 5.02 4.54 4.8C5.51 4.5 5.81 3.23 5.06 2.48L2.97 0.39C2.37 -0.14 1.48 -0.14 0.95 0.39L-0.47 1.81C-1.89 3.3 -0.32 7.27 3.2 10.78C6.71 14.29 10.67 15.94 12.17 14.44L13.59 13.02C14.11 12.42 14.11 11.53 13.59 11Z" fill="#B3C0D2" fill-opacity="1.000000" fill-rule="nonzero"/>
</svg>
